<svg xmlns="http://www.w3.org/2000/svg" width="497" height="209" viewBox="0 0 497 209" fill="none"><path d="M99.9314 158.717H64.5552L99.9314 105.221H135.308L99.9314 158.717Z" fill="#FF8E42"></path><path d="M86.9881 50H123.227L86.9881 105.221H50.749L86.9881 50Z" fill="#FF6600"></path><path d="M207.477 96.538C207.477 99.8187 206.686 102.894 205.104 105.765C203.581 108.635 201.15 110.949 197.811 112.707C194.53 114.464 190.371 115.343 185.333 115.343H175.051V138.893H162.749V77.5572H185.333C190.078 77.5572 194.12 78.3774 197.459 80.0177C200.799 81.658 203.288 83.9134 204.929 86.784C206.628 89.6546 207.477 92.9059 207.477 96.538ZM184.805 105.413C188.203 105.413 190.722 104.652 192.363 103.129C194.003 101.547 194.823 99.35 194.823 96.538C194.823 90.5626 191.484 87.5749 184.805 87.5749H175.051V105.413H184.805Z" fill="black"></path><path d="M224.999 97.7683C226.581 95.1906 228.631 93.1695 231.15 91.705C233.728 90.2404 236.657 89.5081 239.938 89.5081V102.426H236.686C232.82 102.426 229.891 103.334 227.899 105.15C225.966 106.966 224.999 110.129 224.999 114.64V138.893H212.697V90.2111H224.999V97.7683Z" fill="black"></path><path d="M266.326 139.684C261.639 139.684 257.421 138.659 253.672 136.609C249.923 134.5 246.964 131.541 244.797 127.733C242.688 123.926 241.633 119.532 241.633 114.552C241.633 109.573 242.717 105.179 244.885 101.371C247.111 97.5632 250.128 94.6341 253.936 92.5837C257.744 90.4747 261.991 89.4202 266.678 89.4202C271.364 89.4202 275.611 90.4747 279.419 92.5837C283.227 94.6341 286.215 97.5632 288.383 101.371C290.609 105.179 291.722 109.573 291.722 114.552C291.722 119.532 290.579 123.926 288.295 127.733C286.068 131.541 283.022 134.5 279.156 136.609C275.348 138.659 271.071 139.684 266.326 139.684ZM266.326 128.964C268.552 128.964 270.632 128.436 272.565 127.382C274.557 126.269 276.139 124.629 277.31 122.461C278.482 120.293 279.068 117.657 279.068 114.552C279.068 109.924 277.838 106.38 275.377 103.919C272.975 101.4 270.017 100.141 266.502 100.141C262.987 100.141 260.028 101.4 257.627 103.919C255.283 106.38 254.112 109.924 254.112 114.552C254.112 119.18 255.254 122.754 257.539 125.273C259.882 127.733 262.811 128.964 266.326 128.964Z" fill="black"></path><path d="M309.533 129.139H322.745V138.893H297.231V70H309.533V129.139Z" fill="black"></path><path d="M332.288 84.4114C330.121 84.4114 328.304 83.7377 326.84 82.3903C325.434 80.9843 324.731 79.2561 324.731 77.2057C324.731 75.1553 325.434 73.4564 326.84 72.109C328.304 70.703 330.121 70 332.288 70C334.456 70 336.242 70.703 337.648 72.109C339.113 73.4564 339.845 75.1553 339.845 77.2057C339.845 79.2561 339.113 80.9843 337.648 82.3903C336.242 83.7377 334.456 84.4114 332.288 84.4114ZM338.351 90.2111V138.893H326.049V90.2111H338.351Z" fill="black"></path><path d="M373.969 89.5081C379.768 89.5081 384.455 91.3535 388.029 95.0442C391.602 98.6763 393.389 103.773 393.389 110.334V138.893H381.086V112.004C381.086 108.137 380.12 105.179 378.187 103.129C376.253 101.02 373.617 99.9651 370.278 99.9651C366.88 99.9651 364.185 101.02 362.193 103.129C360.26 105.179 359.294 108.137 359.294 112.004V138.893H346.991V90.2111H359.294V96.2744C360.934 94.1654 363.014 92.5251 365.533 91.3535C368.11 90.1232 370.922 89.5081 373.969 89.5081Z" fill="black"></path><path d="M446.828 113.498C446.828 115.255 446.711 116.837 446.477 118.243H410.888C411.18 121.758 412.411 124.511 414.578 126.503C416.746 128.495 419.411 129.491 422.575 129.491C427.144 129.491 430.396 127.528 432.329 123.603H445.598C444.192 128.29 441.497 132.156 437.513 135.203C433.53 138.19 428.638 139.684 422.838 139.684C418.152 139.684 413.934 138.659 410.185 136.609C406.494 134.5 403.594 131.541 401.485 127.733C399.435 123.926 398.409 119.532 398.409 114.552C398.409 109.514 399.435 105.091 401.485 101.283C403.535 97.4754 406.406 94.5462 410.097 92.4958C413.787 90.4454 418.035 89.4202 422.838 89.4202C427.466 89.4202 431.597 90.4161 435.229 92.4079C438.919 94.3998 441.761 97.241 443.753 100.932C445.803 104.564 446.828 108.753 446.828 113.498ZM434.086 109.983C434.028 106.819 432.885 104.3 430.659 102.426C428.433 100.492 425.709 99.5258 422.487 99.5258C419.441 99.5258 416.863 100.463 414.754 102.338C412.704 104.154 411.444 106.702 410.975 109.983H434.086Z" fill="black"></path></svg>